<svg xmlns="http://www.w3.org/2000/svg" width="800" height="450"><rect width="800" height="450" fill="#121212"/><rect width="800" height="60" x="0" y="0" fill="#1a1a1a"/><circle cx="40" cy="30" r="15" fill="#3498db"/><text x="65" y="35" fill="#fff" font-family="Arial" font-size="20">AstroWeather</text><rect width="250" height="30" x="500" y="15" fill="#2c3e50" rx="15"/><text x="520" y="35" fill="#7f8c8d" font-family="Arial" font-size="14">Search for a location...</text><circle cx="730" cy="30" r="10" fill="#3498db"/><circle cx="400" cy="225" r="150" fill="#2980b9"/><ellipse cx="400" cy="225" fill="none" stroke="#3498db" stroke-width="1" rx="150" ry="150"/><ellipse cx="400" cy="225" fill="none" stroke="#3498db" stroke-width="1" rx="150" ry="30"/><ellipse cx="400" cy="225" fill="none" stroke="#3498db" stroke-width="1" rx="30" ry="150"/><path fill="#27ae60" d="M350,150 Q400,120 450,150 Q470,200 450,250 Q400,280 350,250 Q330,200 350,150"/><path fill="#27ae60" d="M300,200 Q320,180 340,200 Q350,220 340,240 Q320,260 300,240 Q290,220 300,200"/><ellipse cx="380" cy="170" fill="rgba(255,255,255,0.5)" rx="30" ry="15"/><ellipse cx="420" cy="200" fill="rgba(255,255,255,0.5)" rx="40" ry="20"/><rect width="180" height="250" x="600" y="80" fill="#1a1a1a" rx="10"/><text x="620" y="110" fill="#fff" font-family="Arial" font-size="16">New York</text><line x1="600" x2="780" y1="120" y2="120" stroke="#2c3e50" stroke-width="1"/><text x="620" y="150" fill="#3498db" font-family="Arial" font-size="14">Weather Information</text><rect width="140" height="80" x="620" y="160" fill="#2c3e50" rx="5"/><circle cx="650" cy="190" r="15" fill="#f39c12"/><text x="680" y="195" fill="#fff" font-family="Arial" font-size="18">24°C</text><text x="640" y="220" fill="#bdc3c7" font-family="Arial" font-size="12">Sunny</text><text x="620" y="270" fill="#3498db" font-family="Arial" font-size="14">Location Details</text><rect width="140" height="80" x="620" y="280" fill="#2c3e50" rx="5"/><text x="630" y="300" fill="#bdc3c7" font-family="Arial" font-size="12">Latitude: 40.7128°</text><text x="630" y="320" fill="#bdc3c7" font-family="Arial" font-size="12">Longitude: -74.0060°</text><text x="630" y="340" fill="#bdc3c7" font-family="Arial" font-size="12">Local Time: 14:30</text><rect width="200" height="50" x="20" y="380" fill="#1a1a1a" rx="25"/><circle cx="45" cy="405" r="15" fill="#2c3e50"/><text x="45" y="410" fill="#fff" font-family="Arial" font-size="15" text-anchor="middle">+</text><circle cx="85" cy="405" r="15" fill="#2c3e50"/><text x="85" y="410" fill="#fff" font-family="Arial" font-size="15" text-anchor="middle">-</text><circle cx="125" cy="405" r="15" fill="#2c3e50"/><text x="125" y="410" fill="#fff" font-family="Arial" font-size="15" text-anchor="middle">↻</text><text x="165" y="400" fill="#fff" font-family="Arial" font-size="10">Day</text><rect width="30" height="15" x="165" y="405" fill="#3498db" rx="7.5"/><circle cx="185" cy="412.5" r="7.5" fill="#fff"/><text x="200" y="400" fill="#fff" font-family="Arial" font-size="10">Night</text></svg>